<?xml version="1.0" encoding="UTF-8"?>
<svg xmlns="http://www.w3.org/2000/svg" version="1.1" viewBox="0 0 250 90">
  <!-- Generator: Adobe Illustrator 28.7.2, SVG Export Plug-In . SVG Version: 1.2.0 Build 154)  -->
  <g>
    <g id="Camada_1">
      <circle cx="44.9" cy="45.5" r="39.7"/>
      <path d="M44.9,4.1C22,4.1,3.4,22.7,3.4,45.6s18.6,41.4,41.5,41.4,41.5-18.6,41.5-41.5S67.8,4.1,44.9,4.1ZM67.2,70.6c-1,.9-2.3,1.4-3.6,1.4s-3-.6-4.1-1.8l-14.6-16.6-14.7,16.6c-2,2.2-5.4,2.5-7.7.5-2.2-2-2.5-5.4-.5-7.7l18.7-21.2c1-1.2,2.5-1.8,4.1-1.8s3,.7,4.1,1.8l18.8,21.2c2,2.2,1.8,5.7-.5,7.6ZM67.2,46.7c-1,.9-2.3,1.4-3.6,1.4s-3-.6-4.1-1.8l-14.6-16.6-14.7,16.6c-2,2.2-5.4,2.5-7.7.5-2.2-2-2.5-5.4-.5-7.7l18.7-21.2c1-1.2,2.5-1.8,4.1-1.8s3,.7,4.1,1.8l18.7,21.2c2.1,2.2,1.9,5.6-.4,7.6Z" fill="#0fc"/>
      <g>
        <path d="M126.8,53.8h3.8l-1.2,5.1h-9.5l.9-3.5c-3.7,2.7-7,4-9.9,4s-3.9-.7-5.2-2.1c-1.3-1.4-1.9-2.9-1.9-4.6s.3-3.3,1-6.2l3-12.8h-3.7l1.2-5.1h9.4l-3.9,16.4c-.8,3.3-1.2,5.3-1.2,6.1s.3,1.6.9,2.2,1.4.8,2.3.8c2.2,0,5.3-1.5,9.3-4.4l3.8-16h-4.5l1.2-5.1h10.2l-6,25.2Z" fill="#fff"/>
        <path d="M141,67.4h4.7l-1.2,5.1h-14l1.2-5.1h3.6l8-33.7h-4.3l1.2-5.1h10l-.9,3.8c3.1-2.9,6.5-4.3,10.1-4.3s6.3,1.3,8.6,3.8,3.5,5.8,3.5,9.8-1.6,9-4.9,12.6c-3.2,3.6-7.2,5.4-11.8,5.4s-8.1-1.7-10.8-5.2l-3,12.9ZM146.1,46.7c0,2.6.7,4.6,2.2,6s3.4,2.2,5.7,2.2c3.4,0,6.2-1.3,8.4-4s3.3-5.7,3.3-9.2-.7-4.7-2.2-6.1c-1.5-1.4-3.4-2.2-5.7-2.2-3.4,0-6.1,1.4-8.3,4.3-2.3,2.8-3.4,5.8-3.4,9Z" fill="#fff"/>
        <path d="M204.3,53.8h4.2l-1.2,5.1h-9.8l.9-3.7c-2.9,2.8-6.2,4.2-10.1,4.2s-6.7-1.3-8.9-3.8-3.3-5.8-3.3-9.7,1.7-9,5-12.6,7.2-5.5,11.7-5.5,7.9,1.8,10.8,5.4l3-12.7h-4.7l1.2-5.1h10.3l-9.1,38.4ZM181.9,45.8c0,2.6.7,4.6,2.2,6.2,1.4,1.6,3.3,2.4,5.7,2.4s5.9-1.4,8.2-4.1c2.3-2.7,3.4-5.9,3.4-9.5s-.8-4.6-2.4-5.9c-1.6-1.3-3.5-2-5.7-2s-5.8,1.3-8.1,4c-2.2,2.6-3.3,5.6-3.3,8.9Z" fill="#fff"/>
        <path d="M214.7,46.7c0-3.1.7-6.1,2.2-8.9,1.5-2.9,3.6-5.2,6.5-7.1s6.2-2.8,9.8-2.8,7.4,1.2,9.7,3.7c2.3,2.5,3.4,5.6,3.4,9.3s-.7,6-2.2,9.1c-1.4,3.1-3.7,5.5-6.7,7.3-3,1.7-6.2,2.6-9.5,2.6s-7.1-1.2-9.5-3.5-3.7-5.6-3.7-9.7ZM221,46.1c0,5.5,2.5,8.2,7.6,8.2s6.4-1.4,8.5-4.1c2.1-2.7,3.2-5.9,3.2-9.4s-.7-4.1-2.2-5.5-3.4-2.1-5.8-2.1c-3.4,0-6.2,1.3-8.2,3.9-2,2.7-3.1,5.7-3.1,9Z" fill="#fff"/>
      </g>
    </g>
  </g>
</svg>